<svg viewBox="0 0 83.973 14.684" xmlns="http://www.w3.org/2000/svg">
  <path
    d="m21.944 3.5702q1.3095 0 2.269.62237l-.20745.9465-.11669.025933q-.8687-.72606-1.9967-.72606-1.2317 0-1.893.85573-.66127.84277-.66127 2.4765 0 1.6467.66127 2.5154.66127.8687 1.8671.8687.5705 0 1.128-.20745.5705-.20745 1.0373-.58347l.12966.06483-.09076.9854q-1.128.62237-2.2949.62237-1.6726 0-2.5932-1.0762-.92057-1.0891-.92057-3.0988 0-2.0616.95947-3.1766.95947-1.1151 2.7228-1.1151zm6.2626 1.8411q1.4133 0 2.1653.8298.76496.8298.76496 2.3468 0 1.6467-.81683 2.5543-.80386.89463-2.3079.89463-1.4003 0-2.1653-.84276-.76496-.85573-.76496-2.4246 0-1.6078.81683-2.4765.81683-.88167 2.3079-.88167zm-.09076.81683q-1.0243 0-1.53.58347-.4927.58347-.4927 1.8411 0 1.3484.4927 1.9578.4927.6094 1.504.6094 1.0373 0 1.5429-.59643.50567-.59643.50567-1.8671 0-1.3095-.50567-1.9189-.4927-.6094-1.517-.6094zm10.126 3.7861.01297 1.9319h-1.0373l-3.397-4.927h-.06483l-.01297 2.7747.02593 2.1523h-.88167l.0389-1.906-.02593-4.5509h1.0243l3.397 4.927h.09076l-.02593-4.8881.89463-.06483zm4.9009-4.5769q1.4781 0 2.256.7909.7909.7909.7909 2.269 0 1.6985-.85573 2.6061t-2.4505.9076q-.4538 0-1.0891-.02593-.62237-.01297-1.1799-.0389l.0389-1.9449-.0389-4.5119zm-.10372 5.7829q1.0373 0 1.5948-.62237.5705-.63533.5705-1.906 0-1.2447-.5316-1.8411-.5316-.59643-1.6078-.59643-.63533 0-1.4911.051863l-.02593 3.6174.01297 1.2188q.376.02593.7909.05186t.6872.02593zm5.8475-1.2966.02593 2.0227h-.95947l.0389-1.9449-.0389-4.5119h.97243zm9.2964 2.0227h-.8687l-.14262-1.9708-.35008-2.9821h-.07779l-1.8541 4.2269h-.76496l-1.7504-4.2269h-.07779l-.33711 2.9043-.18152 2.0486h-.8298l.71314-6.4569h1.128l.32414.97243 1.4133 3.4748h.07779l1.4781-3.5267.33711-.92057h1.1021zm5.9254-.8298.07779.0778-.09076.752h-3.9286l.0389-1.9449-.0389-4.5119h3.9547l.06483.077793-.07779.752-1.6337-.051863-1.3484.012967-.01297 1.9578 1.2836.012967 1.128-.038896.06483.09076-.0778.76496-1.1929-.038897-1.2058.012967-.01297.88167.01297 1.2317 1.2706.01297zm7.0535-1.1021.01297 1.9319h-1.0373l-3.397-4.927h-.06483l-.01297 2.7747.02593 2.1523h-.88167l.0389-1.906-.02593-4.5509h1.0243l3.397 4.927h.09076l-.02593-4.8881.89463-.06483zm6.2755-4.4473-.06483.81683-1.2058-.09076h-.6483l-.0389 3.6304.0389 2.0227h-.97243l.0389-1.9449-.02593-3.7082h-.64831l-1.2317.09076-.07779-.09076.07779-.80386h4.7066zm3.6045-.15559q1.4133 0 2.1653.8298.76496.8298.76496 2.3468 0 1.6467-.81683 2.5543-.80386.89463-2.3079.89463-1.4003 0-2.1653-.84277-.76496-.85573-.76496-2.4246 0-1.6078.81683-2.4765.81683-.88167 2.3079-.88167zm-.09076.81683q-1.0243 0-1.53.58347-.4927.58347-.4927 1.8411 0 1.3484.4927 1.9578.4927.6094 1.504.6094 1.0373 0 1.5429-.59643.50567-.59643.50567-1.8671 0-1.3095-.50567-1.9189-.4927-.6094-1.517-.6094z"
    fill="#ffd700"
    stroke-width="0"
    style="white-space:pre"
    aria-label="Condimento"></path>
  <path
    d="m4.5415 11.734c-1.4918-.36108-2.3812-2.0141-1.8504-3.4387.16473-.44209.32043-.66863.79429-1.1557l.41978-.43149.0020999-.35377c.002-.31858.02251-.38706.20729-.68851 1.8807-3.0683 2.9376-4.7465 3.0863-4.9005.23601-.24453.58977-.43333.96727-.51621.40136-.088129.84436-.0074999 1.56.28424 1.8164.74024 3.2515 2.143 4.0461 3.955.41645.94956.46596 1.4928.19174 2.1038-.19498.43447-.4427.65348-1.4352 1.269-.47274.29315-1.598.99247-2.5005 1.5541l-1.6409 1.0211-.75619.0116-.48172.46602c-.29732.28764-.59128.51911-.76794.60473-.60244.29196-1.2252.36482-1.842.21552zm6.0618-3.3741c1.5961-.98666 2.4892-1.5702 2.6184-1.7107.26955-.29314.38243-.68581.30622-1.0653-.078129-.38899-.43043-1.2117-.72031-1.682-.83874-1.3608-2.1228-2.4093-3.6009-2.9402-.65786-.23631-1.2587-.14806-1.605.23574-.060729.067299-.4568.68496-.88015 1.3726-.42336.68762-1.0678 1.7308-1.4321 2.3182-.70471 1.1362-.83316 1.3624-.83316 1.4672 0 .03625.77944.8475 1.7321 1.8028 1.4778 1.4819 1.7512 1.7341 1.8623 1.718.071619-.01035 1.2203-.69276 2.5526-1.5164z"
    fill="#ffd700"
    stroke="#ffd700"
    stroke-width=".43187"></path>
  <g transform="matrix(.99999 0 0 .99999 -62.188 -72.924)" fill="#999" font-family="Orbitron">
    <path
      d="m63.854 84.544q0 .29425-.04655.52534-.04489.23108-.1463.39234-.09975.16126-.25934.24604-.15793.08478-.38236.08478-.21113 0-.3674-.08478-.15627-.08479-.25934-.24604-.10307-.16126-.15461-.39234-.04987-.23108-.04987-.52534t.04489-.527q.04655-.23274.1463-.394.09975-.16126.25768-.24604.15793-.08645.38236-.08645.20947 0 .36574.08478.15627.08478.261.24604.10474.16126.15627.394.05154.23274.05154.52866zm-1.1537 0q0 .41561.07149.62508.07148.20947.2477.20947.1729 0 .2477-.20781.07647-.20781.07647-.62674 0-.41728-.07647-.62674-.07481-.21113-.2477-.21113-.08811 0-.14962.0532-.05985.0532-.09808.15793-.03824.10474-.05486.26267-.01662.15627-.01662.36408z"
      stroke-width=".13016"
      aria-label="0"></path>
    <path
      d="m65.236 87.128h-.39014v-1.0682q0-.03283 0-.07828.0013-.04672.0025-.09596.0025-.0505.0038-.10101.0025-.0505.0038-.09217-.0063.0076-.02146.02273-.01515.01515-.03409.03409-.01894.01768-.03914.03662t-.03914.03409l-.21212.17045-.18939-.23484.59468-.47347h.3207z"
      stroke-width=".098853"
      aria-label="1"></path>
    <path
      d="m63.383 86.814q0 .15519-.02455.27706-.02367.12187-.07716.20692-.05261.08504-.13677.12976-.08329.04472-.20166.04472-.11135 0-.19376-.04472-.08241-.04471-.13677-.12976-.05436-.08505-.08154-.20692-.0263-.12187-.0263-.27706 0-.15519.02367-.27793.02455-.12275.07716-.20779.0526-.08505.1359-.12976.08329-.04559.20165-.04559.11047 0 .19289.04472.08241.04471.13765.12976.05524.08505.08242.20779.02718.12275.02718.27881zm-.60847 0q0 .21919.0377.32966.0377.11047.13064.11047.09118 0 .13064-.1096.04033-.1096.04033-.33054 0-.22007-.04033-.33054-.03945-.11135-.13064-.11135-.04647 0-.07891.02806-.03156.02806-.05173.08329-.02016.05524-.02893.13853-.0088.08242-.0088.19201z"
      stroke-width=".068644"
      aria-label="0"></path>
  </g>
</svg>
